<?xml version="1.0" encoding="UTF-8" standalone="no"?>
<svg width="50px" height="50px" viewBox="0 0 50 50" version="1.1" xmlns="http://www.w3.org/2000/svg" xmlns:xlink="http://www.w3.org/1999/xlink">
    <!-- Generator: Sketch 50 (54983) - http://www.bohemiancoding.com/sketch -->
    <title>Group</title>
    <desc>Created with Sketch.</desc>
    <defs></defs>
    <g id="Page-1" stroke="none" stroke-width="1" fill="none" fill-rule="evenodd">
        <g id="Group">
            <circle id="Oval" fill="#FFD930" cx="25" cy="25" r="25"></circle>
            <path d="M24.1666667,13.0648724 L16.5519153,20.7721642 C16.1968932,21.1315008 15.6212886,21.1315008 15.2662666,20.7721642 C14.9112445,20.4128276 14.9112445,19.8302279 15.2662666,19.4708913 L24.3571757,10.2695024 C24.547665,10.0766982 24.8016583,9.98734422 25.0510087,10.0014406 C25.0686029,10.0004845 25.0863266,10 25.1041667,10 C25.5192235,10 25.8712829,10.2622317 25.9946269,10.6255804 L34.7337334,19.4708913 C35.0887555,19.8302279 35.0887555,20.4128276 34.7337334,20.7721642 C34.3787114,21.1315008 33.8031068,21.1315008 33.4480847,20.7721642 L26.0416667,13.2757376 L26.0416667,38.2552083 C26.0416667,38.7585929 25.6219336,39.1666667 25.1041667,39.1666667 C24.5863997,39.1666667 24.1666667,38.7585929 24.1666667,38.2552083 L24.1666667,13.0648724 Z" id="Combined-Shape" fill="#FFFFFF" fill-rule="nonzero"></path>
        </g>
    </g>
</svg>