<?xml version="1.0" encoding="UTF-8" standalone="no"?>
<svg width="50px" height="50px" viewBox="0 0 50 50" version="1.1" xmlns="http://www.w3.org/2000/svg" xmlns:xlink="http://www.w3.org/1999/xlink">
    <!-- Generator: Sketch 50 (54983) - http://www.bohemiancoding.com/sketch -->
    <title>bug</title>
    <desc>Created with Sketch.</desc>
    <defs></defs>
    <g id="Page-1" stroke="none" stroke-width="1" fill="none" fill-rule="evenodd">
        <g id="Desktop-HD" transform="translate(-254.000000, -539.000000)" fill-rule="nonzero">
            <g id="bug" transform="translate(254.000000, 539.000000)">
                <path d="M7.60869565,28.2608696 L1.08695652,28.2608696 C0.485869565,28.2608696 0,27.775 0,27.173913 C0,26.5728261 0.485869565,26.0869565 1.08695652,26.0869565 L7.60869565,26.0869565 C8.20978261,26.0869565 8.69565217,26.5728261 8.69565217,27.173913 C8.69565217,27.775 8.20978261,28.2608696 7.60869565,28.2608696 Z" id="Shape" fill="#FFD930"></path>
                <path d="M12.1576087,15.423913 C11.8793478,15.423913 11.6,15.3173913 11.3880435,15.1054348 L6.83913043,10.551087 C6.41521739,10.125 6.41521739,9.43804348 6.84021739,9.01304348 C7.26521739,8.59021739 7.95326087,8.58913043 8.37826087,9.01413043 L12.9271739,13.5684783 C13.351087,13.9945652 13.351087,14.6815217 12.926087,15.1065217 C12.7130435,15.3184783 12.4347826,15.423913 12.1576087,15.423913 Z" id="Shape" fill="#FFD930"></path>
                <path d="M37.8423913,15.423913 C37.5641304,15.423913 37.2858696,15.3173913 37.073913,15.1065217 C36.648913,14.6815217 36.648913,13.9945652 37.0728261,13.5684783 L41.6217391,9.01413043 C42.0467391,8.58913043 42.7347826,8.59021739 43.1597826,9.01304348 C43.5847826,9.43804348 43.5847826,10.125 43.1608696,10.551087 L38.6119565,15.1054348 C38.4,15.3184783 38.1206522,15.423913 37.8423913,15.423913 Z" id="Shape" fill="#FFD930"></path>
                <path d="M7.60869565,47.826087 C7.33043478,47.826087 7.05108696,47.7195652 6.83913043,47.5076087 C6.41521739,47.0815217 6.41521739,46.3945652 6.84021739,45.9695652 L11.3934783,41.4217391 C11.8184783,40.998913 12.5065217,40.9978261 12.9315217,41.4228261 C13.3554348,41.848913 13.3554348,42.5358696 12.9304348,42.9608696 L8.37717391,47.5086957 C8.16521739,47.7195652 7.88695652,47.826087 7.60869565,47.826087 Z" id="Shape" fill="#FFD930"></path>
                <path d="M42.3913043,47.826087 C42.1130435,47.826087 41.8347826,47.7195652 41.6228261,47.5086957 L37.0695652,42.9608696 C36.6445652,42.5358696 36.6445652,41.848913 37.0684783,41.4228261 C37.4934783,40.9978261 38.1815217,40.998913 38.6065217,41.4217391 L43.1597826,45.9695652 C43.5847826,46.3945652 43.5847826,47.0815217 43.1608696,47.5076087 C42.948913,47.7195652 42.6695652,47.826087 42.3913043,47.826087 Z" id="Shape" fill="#FFD930"></path>
                <path d="M48.9130435,28.2608696 L42.3913043,28.2608696 C41.7902174,28.2608696 41.3043478,27.775 41.3043478,27.173913 C41.3043478,26.5728261 41.7902174,26.0869565 42.3913043,26.0869565 L48.9130435,26.0869565 C49.5141304,26.0869565 50,26.5728261 50,27.173913 C50,27.775 49.5141304,28.2608696 48.9130435,28.2608696 Z" id="Shape" fill="#FFD930"></path>
                <path d="M34.0478261,9.29891304 C33.8695652,9.18152174 33.6619565,9.11847826 33.4478261,9.11847826 C33.4471014,9.11847826 27.8007246,9.12717391 16.5086957,9.14456522 C16.2956522,9.14456522 16.0858696,9.20869565 15.9086957,9.32608696 C10.1195652,13.1793478 6.52173913,20.4336957 6.52173913,28.2608696 C6.52173913,40.2478261 14.8108696,50 25,50 C35.1891304,50 43.4782609,40.2478261 43.4782609,28.2608696 C43.4782609,20.4097826 39.8652174,13.1445652 34.0478261,9.29891304 Z" id="Shape" fill="#0061FE"></path>
                <path d="M36.6380435,0.318478261 C36.2130435,-0.106521739 35.526087,-0.106521739 35.101087,0.318478261 L31.0858696,4.33369565 C29.4032609,2.9826087 27.2826087,2.17391304 25,2.17391304 C22.7173913,2.17391304 20.5967391,2.9826087 18.9141304,4.33369565 L14.898913,0.318478261 C14.473913,-0.106521739 13.7869565,-0.106521739 13.3619565,0.318478261 C12.9369565,0.743478261 12.9369565,1.43043478 13.3619565,1.85543478 L17.3717391,5.86521739 C16.2923913,7.21630435 15.5576087,8.86195652 15.3163043,10.676087 C15.2934783,10.8456522 15.3119565,11.0195652 15.3695652,11.1826087 C15.6793478,12.0608696 20.8673913,15.2173913 25,15.2173913 C29.1326087,15.2173913 34.3206522,12.0608696 34.6304348,11.1826087 C34.6880435,11.0206522 34.7054348,10.8456522 34.6836957,10.676087 C34.4413043,8.86195652 33.7076087,7.21630435 32.6282609,5.86521739 L36.6380435,1.85543478 C37.0630435,1.43043478 37.0630435,0.743478261 36.6380435,0.318478261 Z" id="Shape" fill="#FFD930"></path>
                <path d="M25,50 C25.3673913,50 25.725,49.9597826 26.0869565,49.9347826 L26.0869565,14.1304348 C26.0869565,13.5293478 25.601087,13.0434783 25,13.0434783 C24.398913,13.0434783 23.9130435,13.5293478 23.9130435,14.1304348 L23.9130435,49.9347826 C24.275,49.9597826 24.6326087,50 25,50 Z" id="Shape" fill="#FFD930"></path>
                <circle id="Oval" fill="#FFD930" cx="15.2173913" cy="23.9130435" r="3.26086957"></circle>
                <circle id="Oval" fill="#FFD930" cx="17.9347826" cy="36.4130435" r="2.7173913"></circle>
                <circle id="Oval" fill="#FFD930" cx="34.7826087" cy="23.9130435" r="3.26086957"></circle>
                <circle id="Oval" fill="#FFD930" cx="32.0652174" cy="36.4130435" r="2.7173913"></circle>
            </g>
        </g>
    </g>
</svg>